# xmcd
#
# Track frame offsets:
#	150
#	15199
#	31850
#	43917
#	54432
#	67519
#	81465
#	94664
#	108263
#	120183
#	136820
#	149341
#	156610
#	176052
#	195416
#	209856
#	223752
#	241752
#	258129
#	272871
#	284274
#	300532
#	317585
#	335167
#	348195
#
# Disc length: 4889 seconds
#
# Revision: 1
# Processed by: cddbd v1.5.2PL0 Copyright (c) Steve Scherf et al.
# Submitted via: audiograbber 1.83.01
#
DISCID=66131719
DTITLE=Sarah Vaughan - Sarah Vaughan - The Very Best Of Sarah Vaughan CD 3
DYEAR=1900
DGENRE=
TTITLE0=I Fall In Love Too Easily
TTITLE1=Oh You Crazy Moon
TTITLE2=Serenata
TTITLE3=Have You Met Miss Jones
TTITLE4=I Cried For You
TTITLE5=Snowbound
TTITLE6=When Lights Are Low
TTITLE7=The Best Is Yet To Come
TTITLE8=Blah Blah Blah
TTITLE9=The Second Time Arround
TTITLE10=One Mint Yulep
TTITLE11=This Cant Be Love
TTITLE12=Wonder Why
TTITLE13=Vanity
TTITLE14=All Or Nothing All
TTITLE15=My Reverie
TTITLE16=Moonlight Love
TTITLE17=Till The End Of Time
TTITLE18=None But The Lonely Heart
TTITLE19=Wrap Your Troubles In Dreams
TTITLE20=I Cover The Waterfront
TTITLE21=Dont Blame Me
TTITLE22=A Ghost Of A Chance
TTITLE23=Time After Time
TTITLE24=Body And Soul
EXTD=
EXTT0=
EXTT1=
EXTT2=
EXTT3=
EXTT4=
EXTT5=
EXTT6=
EXTT7=
EXTT8=
EXTT9=
EXTT10=
EXTT11=
EXTT12=
EXTT13=
EXTT14=
EXTT15=
EXTT16=
EXTT17=
EXTT18=
EXTT19=
EXTT20=
EXTT21=
EXTT22=
EXTT23=
EXTT24=
PLAYORDER=
